#!OML:ASF F:\VICON\USERDATA\INSTALL\rory3\rory3.ASF
:FULLY-SPECIFIED
:DEGREES
483
root 2.73411 9.86569 -4.52204 -17.649 -47.6618 3.9606
lowerback 28.7342 2.63438 -1.84148
upperback 12.438 2.32996 1.45486
thorax -2.01002 0.776239 1.97332
lowerneck -20.8674 0.437854 -9.99861
upperneck 15.3266 3.57186 -0.0704556
head 8.02702 1.06379 2.03054
rclavicle 2.82274e-014 -5.40694e-014
rhumerus -28.8723 17.7988 -84.4865
rradius 103.082
rwrist 42.709
rhand -39.5547 14.084
rfingers 7.12502
rthumb -12.5385 -15.5198
lclavicle 2.82274e-014 -5.40694e-014
lhumerus -21.6314 -31.3476 86.2814
lradius 91.4383
lwrist -25.2036
lhand -37.0643 10.9113
lfingers 7.12502
lthumb -10.1366 40.6471
rfemur -81.1193 -13.7016 21.3633
rtibia 101.733
rfoot -1.75918 2.10168
rtoes 12.4071
lfemur -79.1406 13.2339 -21.7334
ltibia 99.0802
lfoot -2.02831 -11.2731
ltoes -5.81525
484
root 2.73517 9.85951 -4.52323 -17.6607 -47.6509 3.95499
lowerback 28.6966 2.51633 -2.03585
upperback 12.4288 2.12842 1.41072
thorax -1.99759 0.669848 2.09658
lowerneck -20.7022 -0.121635 -10.525
upperneck 15.4863 2.89033 0.245238
head 8.07727 0.736403 2.13718
rclavicle 7.77248e-014 -8.74653e-015
rhumerus -28.583 18.3164 -84.5751
rradius 102.761
rwrist 42.558
rhand -39.6363 14.1103
rfingers 7.12502
rthumb -12.6171 -15.4886
lclavicle 7.77248e-014 -8.74653e-015
lhumerus -21.7967 -30.7196 86.2087
lradius 91.5796
lwrist -25.2565
lhand -36.7798 10.9576
lfingers 7.12502
lthumb -9.86221 40.7066
rfemur -81.1451 -13.6881 21.3611
rtibia 101.735
rfoot -1.72855 2.06579
rtoes 12.256
lfemur -79.1945 13.2662 -21.7875
ltibia 99.1063
lfoot -2.03538 -11.329
ltoes -5.9908
485
root 2.73773 9.85825 -4.52582 -17.5444 -47.6666 3.80514
lowerback 28.6087 2.39527 -2.13489
upperback 12.3871 1.9558 1.44759
thorax -1.99952 0.580533 2.24574
lowerneck -20.2267 -0.719165 -11.1693
upperneck 15.4542 2.15702 0.467451
head 8.02051 0.376508 2.21967
rclavicle -1.03964e-013 4.69132e-014
rhumerus -28.4549 18.7667 -84.5803
rradius 102.527
rwrist 42.4167
rhand -39.6026 14.2099
rfingers 7.12502
rthumb -12.5847 -15.3911
lclavicle -1.03964e-013 4.69132e-014
lhumerus -22.0323 -30.1449 86.288
lradius 91.7429
lwrist -25.3168
lhand -36.5346 11.2452
lfingers 7.12502
lthumb -9.62559 41.0053
rfemur -81.144 -13.6609 21.4781
rtibia 101.699
rfoot -1.72707 2.00099
rtoes 12.0727
lfemur -79.2114 13.2826 -21.702
ltibia 99.1164
lfoot -2.09398 -11.3643
ltoes -6.08514
486
root 2.73797 9.85299 -4.52635 -17.5651 -47.6426 3.77822
lowerback 28.6321 2.31719 -2.2647
upperback 12.3306 1.82357 1.40993
thorax -2.06851 0.513437 2.31713
lowerneck -19.7297 -1.3211 -11.7421
upperneck 15.4077 1.36188 0.826917
head 7.96331 0.00659377 2.33148
rclavicle 7.85199e-014 -4.01545e-014
rhumerus -28.4607 19.0593 -84.6852
rradius 102.39
rwrist 42.2743
rhand -39.4739 14.2966
rfingers 7.12502
rthumb -12.4606 -15.3119
lclavicle 7.85199e-014 -4.01545e-014
lhumerus -22.2937 -29.7993 86.2762
lradius 91.8811
lwrist -25.4327
lhand -36.5936 11.6296
lfingers 7.12502
lthumb -9.68259 41.3871
rfemur -81.1441 -13.6844 21.4656
rtibia 101.727
rfoot -1.70875 1.99797
rtoes 12.2324
lfemur -79.2248 13.3584 -21.7301
ltibia 99.1428
lfoot -2.06891 -11.4605
ltoes -5.87505
487
root 2.73932 9.85024 -4.52665 -17.5176 -47.6788 3.63312
lowerback 28.6751 2.24195 -2.29309
upperback 12.3175 1.7163 1.37262
thorax -2.09629 0.459954 2.32367
lowerneck -19.5449 -1.93889 -12.2369
upperneck 15.6584 0.578734 1.15574
head 8.06701 -0.370736 2.42724
rclavicle 6.14245e-014 -1.47101e-014
rhumerus -28.3826 19.2442 -84.8199
rradius 102.229
rwrist 42.1771
rhand -39.5024 14.471
rfingers 7.12502
rthumb -12.488 -15.1359
lclavicle 6.14245e-014 -1.47101e-014
lhumerus -22.4678 -29.5212 86.1763
lradius 92.0204
lwrist -25.3907
lhand -36.725 11.5205
lfingers 7.12502
lthumb -9.80934 41.272
rfemur -81.0707 -13.6488 21.543
rtibia 101.725
rfoot -1.72853 1.95877
rtoes 12.5534
lfemur -79.236 13.5085 -21.6701
ltibia 99.1609
lfoot -1.93721 -11.5629
ltoes -5.61863
488
root 2.74189 9.84762 -4.5332 -17.5759 -47.5969 3.56615
lowerback 28.785 2.16449 -2.4162
upperback 12.3377 1.5755 1.28633
thorax -2.11555 0.386471 2.34046
lowerneck -19.4443 -2.63468 -12.7576
upperneck 15.9269 -0.330092 1.67421
head 8.20636 -0.788923 2.57531
rclavicle 1.2265e-013 -5.40694e-014
rhumerus -28.2105 19.4185 -85.0245
rradius 101.975
rwrist 42.013
rhand -39.734 14.4823
rfingers 7.12502
rthumb -12.7114 -15.1108
lclavicle 1.2265e-013 -5.40694e-014
lhumerus -22.5092 -29.2731 85.9436
lradius 92.1079
lwrist -25.412
lhand -36.8191 11.5429
lfingers 7.12502
lthumb -9.90009 41.2901
rfemur -80.9454 -13.7057 21.5384
rtibia 101.735
rfoot -1.75537 1.94884
rtoes 12.4864
lfemur -79.1669 13.5388 -21.6777
ltibia 99.1656
lfoot -1.95453 -11.6008
ltoes -5.90131
489
root 2.74467 9.84868 -4.53655 -17.6519 -47.5997 3.56339
lowerback 28.7405 2.14018 -2.51466
upperback 12.3931 1.51381 1.22509
thorax -2.02946 0.350801 2.34879
lowerneck -19.123 -3.31566 -13.2893
upperneck 15.9509 -1.24943 2.14236
head 8.23599 -1.2079 2.70358
rclavicle -6.42074e-014 6.75868e-015
rhumerus -28.0426 19.4514 -85.1224
rradius 101.768
rwrist 41.8536
rhand -39.7784 14.6702
rfingers 7.12502
rthumb -12.7541 -14.9203
lclavicle -6.42074e-014 6.75868e-015
lhumerus -22.5117 -29.1223 85.8064
lradius 92.2201
lwrist -25.357
lhand -36.8566 11.7401
lfingers 7.12502
lthumb -9.93626 41.4856
rfemur -80.8352 -13.6723 21.519
rtibia 101.728
rfoot -1.79928 1.91622
rtoes 12.3534
lfemur -79.0467 13.5882 -21.67
ltibia 99.1428
lfoot -2.00941 -11.564
ltoes -6.18786
490
root 2.74418 9.84341 -4.53351 -17.6033 -47.6188 3.57285
lowerback 28.5893 2.09794 -2.59651
upperback 12.402 1.43946 1.1248
thorax -1.9454 0.313394 2.30891
lowerneck -18.8466 -3.90714 -13.6214
upperneck 15.9845 -2.05922 2.40831
head 8.27262 -1.5848 2.74438
rclavicle -3.35946e-014 -4.73108e-014
rhumerus -27.8989 19.45 -85.3489
rradius 101.486
rwrist 41.7073
rhand -39.9952 14.8883
rfingers 7.12502
rthumb -12.9632 -14.689
lclavicle -3.35946e-014 -4.73108e-014
lhumerus -22.6033 -28.9301 85.72
lradius 92.3125
lwrist -25.3541
lhand -36.8583 11.8843
lfingers 7.12502
lthumb -9.93797 41.6297
rfemur -80.9179 -13.6295 21.5233
rtibia 101.738
rfoot -1.77717 1.88858
rtoes 12.3902
lfemur -79.1512 13.629 -21.6903
ltibia 99.1829
lfoot -2.01669 -11.5712
ltoes -6.10692
491
root 2.74548 9.84065 -4.53232 -17.6469 -47.5775 3.67166
lowerback 28.5744 2.05286 -2.73677
upperback 12.3548 1.34355 1.00211
thorax -1.98559 0.266809 2.2828
lowerneck -18.6466 -4.50412 -14.1184
upperneck 16.2389 -2.84652 2.81341
head 8.40579 -1.95521 2.86157
rclavicle -1.61016e-014 4.77083e-015
rhumerus -27.818 19.3624 -85.5922
rradius 101.179
rwrist 41.5274
rhand -40.12 15.24
rfingers 7.12502
rthumb -13.0835 -14.3296
lclavicle -1.61016e-014 4.77083e-015
lhumerus -22.774 -28.7009 85.5701
lradius 92.497
lwrist -25.4135
lhand -36.7478 12.0379
lfingers 7.12502
lthumb -9.83135 41.7884
rfemur -80.9851 -13.6389 21.4219
rtibia 101.741
rfoot -1.73652 1.87796
rtoes 12.2157
lfemur -79.2062 13.6214 -21.8138
ltibia 99.1827
lfoot -2.02189 -11.5438
ltoes -6.20228
